<?xml version="1.0" encoding="utf-8"?>
<svg version="1.1" xmlns:xlink="http://www.w3.org/1999/xlink" width="16px" height="16px" viewBox="180 862  16 16" xmlns="http://www.w3.org/2000/svg">
  <path d="M 188 862  C 192.48 862  196 865.52  196 870  C 196 874.48  192.48 878  188 878  C 183.52 878  180 874.48  180 870  C 180 865.52  183.52 862  188 862  Z " fill-rule="nonzero" fill="#f0f0f0" stroke="none" />
  <path d="M 188 862.5  C 192.2 862.5  195.5 865.8  195.5 870  C 195.5 874.2  192.2 877.5  188 877.5  C 183.8 877.5  180.5 874.2  180.5 870  C 180.5 865.8  183.8 862.5  188 862.5  Z " stroke-width="1" stroke="#797979" fill="none" />
  <path d="M 188 874  C 185.76 874  184 872.24  184 870  C 184 867.76  185.76 866  188 866  C 190.24 866  192 867.76  192 870  C 192 872.24  190.24 874  188 874  " fill-rule="nonzero" fill="#797979" stroke="none" />
</svg>