<?xml version="1.0" encoding="utf-8"?>
<svg version="1.1" xmlns:xlink="http://www.w3.org/1999/xlink" width="16px" height="16px" viewBox="238 862  16 16" xmlns="http://www.w3.org/2000/svg">
  <path d="M 246 862  C 250.48 862  254 865.52  254 870  C 254 874.48  250.48 878  246 878  C 241.52 878  238 874.48  238 870  C 238 865.52  241.52 862  246 862  Z " fill-rule="nonzero" fill="#ffffff" stroke="none" />
  <path d="M 246 862.5  C 250.2 862.5  253.5 865.8  253.5 870  C 253.5 874.2  250.2 877.5  246 877.5  C 241.8 877.5  238.5 874.2  238.5 870  C 238.5 865.8  241.8 862.5  246 862.5  Z " stroke-width="1" stroke="#797979" fill="none" />
  <path d="M 246 874  C 243.76 874  242 872.24  242 870  C 242 867.76  243.76 866  246 866  C 248.24 866  250 867.76  250 870  C 250 872.24  248.24 874  246 874  " fill-rule="nonzero" fill="#797979" stroke="none" />
</svg>