<?xml version="1.0" encoding="utf-8"?>
<svg version="1.1" xmlns:xlink="http://www.w3.org/1999/xlink" width="12px" height="10px" xmlns="http://www.w3.org/2000/svg">
  <g transform="matrix(1 0 0 1 -96 -5 )">
    <path d="M 11.85 2.744375  C 10.2849 1.27015625  8.24055 0.239375  5.99595 0.239375  C 3.7554 0.239375  1.71375 1.26734375  0.15 2.736875  L 1.0662 3.8375  C 2.3865 2.60140625  4.1073 1.84765625  5.99595 1.84765625  C 7.8873 1.84765625  9.61125 2.60421875  10.9329 3.84359375  L 11.85 2.744375  Z M 5.99595 3.41328125  C 4.49115 3.41328125  3.1182 4.0540625  2.0625 5.0346875  L 3.0318 6.19953125  C 3.8301 5.46640625  4.8642 5.0215625  5.99595 5.0215625  C 7.12995 5.0215625  8.16495 5.4678125  8.96415 6.20328125  L 9.9348 5.0403125  C 8.8782 4.0559375  7.50345 3.41328125  5.99595 3.41328125  Z M 5.99595 6.543125  C 5.2368 6.543125  4.54155 6.8796875  4.00155 7.364375  L 5.99595 9.760625  L 7.99305 7.36671875  C 7.45215 6.88015625  6.75645 6.543125  5.99595 6.543125  Z " fill-rule="nonzero" fill="#ffffff" stroke="none" transform="matrix(1 0 0 1 96 5 )" />
  </g>
</svg>