<?xml version="1.0" encoding="utf-8"?>
<svg version="1.1" xmlns:xlink="http://www.w3.org/1999/xlink" width="24px" height="10px" xmlns="http://www.w3.org/2000/svg">
  <g transform="matrix(1 0 0 1 -341 -5 )">
    <path d="M 21.0651428671875 2.53285713671875  C 21.0617142890625 1.6057142734375  20.0811428671875 1.634  20.0811428671875 1.634  L 14.6948571328125 1.634  L 1.9611428671875 1.634  C 1.01485715625 1.634  0.9805714453125 2.53285713671875  0.980571421875 2.53285713671875  L 0.980571421875 7.47028570507812  C 0.984 8.39742856835937  1.96114284375 8.36914284179687  1.9611428671875 8.36914286328125  L 20.084571421875 8.36914286328125  C 21.0308571328125 8.36914286328125  21.06514284375 7.4702857265625  21.0651428671875 7.47028570507812  L 21.0651428671875 2.53285713671875  Z M 22.0422857109375 2.08028570507813  C 22.0422857109375 1.33857141015625  21.384 0.735142841796875  20.571428578125 0.735142863281249  L 1.4708571328125 0.735142863281249  C 0.6582857109375 0.735142863281251  0 1.33857143164062  0 2.08028570507813  L 0 7.91657143164062  C 0 8.66142856835938  0.6582857109375 9.26485713671875  1.4708571328125 9.26485713671875  L 20.571428578125 9.26485713671875  C 21.384 9.26485713671875  22.0422857109375 8.66142856835938  22.0422857109375 7.91657143164062  L 22.0422857109375 2.08028570507813  Z M 21.552 2.08028570507813  L 21.552 7.91971429492187  C 21.552 8.4162857265625  21.1131428671875 8.81857143164062  20.571428578125 8.81857143164062  L 1.4708571328125 8.81857143164062  C 0.92914284375 8.81857143164062  0.4902857109375 8.4162857265625  0.4902857109375 7.91971429492187  L 0.4902857109375 2.08028570507813  C 0.4902857109375 1.5837142734375  0.92914284375 1.18142856835938  1.4708571328125 1.18142856835938  L 20.571428578125 1.18142856835938  C 21.1131428671875 1.18142856835938  21.552 1.5837142734375  21.552 2.08028570507813  Z M 23.996571421875 5.05028570507813  C 24 4.85228570507813  24 4.6197142734375  24 4.32742856835937  C 24 3.35  23.0331428671875 3.4317142734375  23.0297142890625 3.43171429492187  C 23.0262857109375 3.43171429492187  23.02285715625 3.42857143164063  23.019428578125 3.42857143164063  L 22.5291428671875 3.42857143164063  L 22.5291428671875 6.57142856835938  L 22.5428571328125 6.57142856835938  L 22.5428571328125 6.57457143164063  L 23.0331428671875 6.57457143164063  C 23.11885715625 6.58085713671875  23.9965714453125 6.60914286328125  23.996571421875 5.67885713671875  L 23.996571421875 5.05028570507813  Z " fill-rule="nonzero" fill="#ffffff" stroke="none" transform="matrix(1 0 0 1 341 5 )" />
  </g>
</svg>