<?xml version="1.0" encoding="utf-8"?>
<svg version="1.1" xmlns:xlink="http://www.w3.org/1999/xlink" width="15px" height="5px" xmlns="http://www.w3.org/2000/svg">
  <g transform="matrix(1 0 0 1 -301 -40 )">
    <path d="M 7.5 0  C 8.89999999999998 0  10 1.1  10 2.5  C 10 3.9  8.89999999999998 5  7.5 5  C 6.10000000000002 5  5 3.9  5 2.5  C 5 1.1  6.10000000000002 0  7.5 0  Z M 13.5 1  C 14.34 1  15 1.66  15 2.5  C 15 3.34  14.34 4  13.5 4  C 12.66 4  12 3.34  12 2.5  C 12 1.66  12.66 1  13.5 1  Z M 3 2.5  C 3 3.34  2.33999999999997 4  1.5 4  C 0.660000000000025 4  0 3.34  0 2.5  C 0 1.66  0.660000000000025 1  1.5 1  C 2.33999999999997 1  3 1.66  3 2.5  Z " fill-rule="nonzero" fill="#ffffff" stroke="none" transform="matrix(1 0 0 1 301 40 )" />
  </g>
</svg>