<?xml version="1.0" encoding="utf-8"?>
<svg version="1.1" xmlns:xlink="http://www.w3.org/1999/xlink" width="18px" height="18px" xmlns="http://www.w3.org/2000/svg">
  <g transform="matrix(1 0 0 1 -341 -255 )">
    <path d="M 17.1632653125 2.21428572265625  C 17.1632653320313 2.43877552734375  16.9795918359375 2.622448984375  16.75510203125 2.622448984375  L 10.4285714257813 2.622448984375  C 10.2040816210938 2.622448984375  10.0204081640625 2.4387755078125  10.0204081640625 2.21428572265625  C 10.0204081640625 1.9897959375  10.204081640625 1.8061224609375  10.4285714257813 1.80612244140625  L 16.75510203125 1.80612244140625  C 16.9795918359375 1.80612244140625  17.1632652929688 1.98979591796875  17.1632653125 2.21428572265625  Z M 17.1632653125 6.704081640625  C 17.1632653320313 6.9285714453125  16.9795918359375 7.11224490234375  16.75510203125 7.11224490234375  L 10.4285714257813 7.11224490234375  C 10.2040816210938 7.11224490234375  10.0204081640625 6.92857142578125  10.0204081640625 6.704081640625  C 10.0204081640625 6.47959185546875  10.204081640625 6.29591837890625  10.4285714257813 6.295918359375  L 16.75510203125 6.295918359375  C 16.9795918359375 6.295918359375  17.1632652929688 6.4795918359375  17.1632653125 6.704081640625  Z M 17.1632653125 11.0918367382813  C 17.1632653320313 11.3163265234375  16.9795918359375 11.5  16.75510203125 11.5  L 10.4285714257813 11.5  C 10.2040816210938 11.5  10.0204081640625 11.3163265234375  10.0204081640625 11.0918367382813  C 10.0204081640625 10.867346953125  10.204081640625 10.6836734765625  10.4285714257813 10.6836734765625  L 16.75510203125 10.6836734765625  C 16.9795918359375 10.6836734765625  17.1632652929688 10.867346953125  17.1632653125 11.0918367382813  Z M 17.1632653125 15.58163265625  C 17.1632653320313 15.8061224414063  16.9795918359375 15.9897959179687  16.75510203125 15.9897959179687  L 10.4285714257813 15.9897959179687  C 10.2040816210938 15.9897959179687  10.0204081640625 15.8061224414063  10.0204081640625 15.58163265625  C 10.0204081640625 15.3571428710937  10.204081640625 15.1734693945312  10.4285714257813 15.1734693945312  L 16.75510203125 15.1734693945312  C 16.9795918359375 15.1734693945312  17.1632652929688 15.3571428710937  17.1632653125 15.58163265625  Z M 8.28571427734375 6.55102041015625  C 8.28571427734375 7.44897958984375  7.551020390625 8.1836734765625  6.65306123046875 8.1836734765625  L 2.46938775390625 8.1836734765625  C 1.57142857421875 8.1836734765625  0.8367346875 7.44897958984375  0.8367346875 6.55102041015625  L 0.8367346875 2.36734693359375  C 0.8367346875 1.46938775390625  1.57142857421875 0.7346938671875  2.46938775390625 0.73469388671875  L 6.65306123046875 0.73469388671875  C 7.55102041015625 0.73469388671875  8.285714296875 1.4693877734375  8.28571427734375 2.36734693359375  L 8.28571427734375 6.55102041015625  Z M 6.65306123046875 1.55102041015625  L 2.46938775390625 1.55102041015625  C 2.0204081640625 1.55102041015625  1.65306123046875 1.91836734375  1.65306123046875 2.36734693359375  L 1.65306123046875 6.55102041015625  C 1.65306123046875 7  2.0204081640625 7.36734693359375  2.46938775390625 7.36734693359375  L 6.65306123046875 7.36734693359375  C 7.1020408203125 7.36734693359375  7.46938775390625 7  7.46938775390625 6.55102041015625  L 7.46938775390625 2.36734693359375  C 7.46938775390625 1.91836734375  7.1020408203125 1.55102041015625  6.65306123046875 1.55102041015625  Z M 8.28571427734375 15.4285714257813  C 8.28571427734375 16.3265306054687  7.551020390625 17.0612244921875  6.65306123046875 17.0612244921875  L 2.46938775390625 17.0612244921875  C 1.57142857421875 17.0612244921875  0.8367346875 16.3265306054688  0.8367346875 15.4285714257813  L 0.8367346875 11.24489796875  C 0.8367346875 10.3469387890625  1.57142857421875 9.61224490234375  2.46938775390625 9.61224490234375  L 6.65306123046875 9.61224490234375  C 7.55102041015625 9.61224490234375  8.285714296875 10.3469387890625  8.28571427734375 11.24489796875  L 8.28571427734375 15.4285714257813  Z M 6.65306123046875 10.4285714257813  L 2.46938775390625 10.4285714257813  C 2.0204081640625 10.4285714257813  1.65306123046875 10.795918359375  1.65306123046875 11.24489796875  L 1.65306123046875 15.4285714257813  C 1.65306123046875 15.877551015625  2.0204081640625 16.2448979492188  2.46938775390625 16.24489796875  L 6.65306123046875 16.24489796875  C 7.1020408203125 16.24489796875  7.46938775390625 15.8775510351563  7.46938775390625 15.4285714257813  L 7.46938775390625 11.24489796875  C 7.46938775390625 10.7959183789063  7.1020408203125 10.4285714453125  6.65306123046875 10.4285714257813  Z " fill-rule="nonzero" fill="#000000" stroke="none" transform="matrix(1 0 0 1 341 255 )" />
  </g>
</svg>