<?xml version="1.0" encoding="utf-8"?>
<svg version="1.1" xmlns:xlink="http://www.w3.org/1999/xlink" width="22px" height="24px" xmlns="http://www.w3.org/2000/svg">
  <g transform="matrix(1 0 0 1 -17 -846 )">
    <path d="M 21.39140625 18.64453125  C 21.39140625 16.957421875  20.491796875 15.39609375  19.02890625 14.55390625  C 18.5640625 14.283203125  18.063671875 14.102734375  17.549609375 14.004296875  L 17.16953125 7.523828125  C 17.144921875 7.135546875  16.816796875 6.834765625  16.417578125 6.834765625  L 13.9484375 6.834765625  L 13.9484375 5.391015625  C 13.9484375 2.8015625  11.785546875 0.696093749999999  9.13046875 0.696093749999999  C 6.47265625 0.696093749999999  4.3125 2.8015625  4.3125 5.391015625  L 4.3125 6.83203125  L 1.843359375 6.83203125  C 1.444140625 6.83203125  1.116015625 7.135546875  1.09140625 7.52109375  L 0.246484375000002 21.90390625  L 0.246484375000002 21.983203125  C 0.254687500000003 22.15546875  0.325781250000003 22.31953125  0.451562500000002 22.448046875  C 0.593750000000003 22.595703125  0.790625000000003 22.677734375  0.998437500000002 22.677734375  L 14.2109375 22.677734375  C 14.24375 22.696875  14.273828125 22.716015625  14.306640625 22.73515625  C 15.766796875 23.580078125  17.56875 23.580078125  19.02890625 22.73515625  C 20.4890625 21.890234375  21.39140625 20.331640625  21.39140625 18.64453125  Z M 5.81640625 6.83203125  L 5.81640625 5.391015625  C 5.81640625 3.6109375  7.30390625 2.16171875  9.13046875 2.16171875  C 10.95703125 2.16171875  12.44453125 3.6109375  12.44453125 5.391015625  L 12.44453125 6.83203125  L 5.81640625 6.83203125  Z M 12.704296875 21  L 1.79140625 21  L 2.5515625 8.29765625  L 4.3125 8.29765625  L 4.3125 9.03046875  C 4.3125 9.43515625  4.648828125 9.76328125  5.064453125 9.76328125  C 5.480078125 9.76328125  5.81640625 9.43515625  5.81640625 9.03046875  L 5.81640625 8.29765625  L 12.44453125 8.29765625  L 12.44453125 9.03046875  C 12.44453125 9.43515625  12.780859375 9.76328125  13.196484375 9.76328125  C 13.612109375 9.76328125  13.9484375 9.43515625  13.9484375 9.03046875  L 13.9484375 8.29765625  L 15.706640625 8.29765625  L 16.040234375 13.96328125  C 15.438671875 14.0453125  14.848046875 14.2421875  14.306640625 14.55390625  C 12.846484375 15.39609375  11.944140625 16.957421875  11.944140625 18.64453125  C 11.944140625 19.571484375  12.217578125 20.462890625  12.704296875 21  Z M 19.76171875 18.64453125  C 19.76171875 19.046484375  19.430859375 19.37734375  19.02890625 19.37734375  L 17.401953125 19.37734375  L 17.401953125 21.004296875  C 17.401953125 21.40625  17.07109375 21.737109375  16.669140625 21.737109375  C 16.341015625 21.737109375  16.059375 21.515625  15.96640625 21.21484375  C 15.947265625 21.14921875  15.936328125 21.078125  15.936328125 21.004296875  L 15.936328125 19.37734375  L 14.309375 19.37734375  C 13.907421875 19.37734375  13.5765625 19.046484375  13.5765625 18.64453125  C 13.5765625 18.242578125  13.907421875 17.91171875  14.309375 17.91171875  L 15.936328125 17.91171875  L 15.936328125 16.284765625  C 15.936328125 16.087890625  16.015625 15.9046875  16.146875 15.7734375  C 16.280859375 15.63671875  16.466796875 15.551953125  16.669140625 15.551953125  C 17.07109375 15.551953125  17.401953125 15.8828125  17.401953125 16.284765625  L 17.401953125 17.91171875  L 19.02890625 17.91171875  C 19.430859375 17.91171875  19.76171875 18.242578125  19.76171875 18.64453125  Z " fill-rule="nonzero" fill="#000006" stroke="none" transform="matrix(1 0 0 1 17 846 )" />
  </g>
</svg>