<?xml version="1.0" encoding="utf-8"?>
<svg version="1.1" xmlns:xlink="http://www.w3.org/1999/xlink" width="18px" height="18px" xmlns="http://www.w3.org/2000/svg">
  <g transform="matrix(1 0 0 1 -776 -255 )">
    <path d="M 1.49014285714286 9.78975  L 7.04153571428571 9.78975  C 7.68808928571429 9.78975  8.21169642857143 10.3133571428571  8.21169642857143 10.9584642857143  L 8.21169642857143 16.5098571428571  C 8.21169642857177 17.1553211148341  7.68844521976688 17.678572323639  7.04298214285749 17.678572323639  C 7.04249999986095 17.678572323639  7.04201785691301 17.6785720252831  7.04153571428571 17.6785714285714  L 1.49014285714286 17.6785714285714  C 0.844679780233468 17.6785714285714  0.321428571428571 17.1553202197665  0.321428571428571 16.5098571428571  L 0.321428571428571 10.9584642857143  C 0.321428571428571 10.3133571428571  0.845035714285715 9.78975  1.49014285714286 9.78975  Z M 10.9584642857143 9.78975  L 16.5098571428571 9.78975  C 17.1549642857143 9.78975  17.6785714285714 10.3133571428571  17.6785714285714 10.9584642857143  L 17.6785714285714 16.5098571428571  C 17.6785714285714 17.1553202197665  17.1553202197665 17.6785714285714  16.5098571428571 17.6785714285714  L 10.9584642857143 17.6785714285714  C 10.9579821430887 17.6785720252831  10.9575000001374 17.678572323639  10.9570178571425 17.678572323639  C 10.3115547802331 17.678572323639  9.78830357142823 17.1553211148341  9.78830357142823 16.5098580379247  L 9.78830357142857 10.9584642857143  C 9.78830357142857 10.3133571428571  10.3119107142857 9.78975  10.9584642857143 9.78975  Z M 6.924375 16.3926964285714  L 6.924375 11.075625  L 1.60585714285714 11.075625  L 1.60585714285714 16.3926964285714  L 6.924375 16.3926964285714  Z M 16.39125 16.3926964285714  L 16.39125 11.075625  L 11.0727321428571 11.075625  L 11.0727321428571 16.3926964285714  L 16.39125 16.3926964285714  Z M 1.49014285714286 0.321428571428571  L 7.04153571428571 0.321428571428571  C 7.68808928571429 0.321428571428571  8.21169642857143 0.845035714285715  8.21169642857143 1.49014285714286  L 8.21169642857143 7.04153571428571  C 8.21169642857177 7.68699968626263  7.68844521976688 8.21025089506753  7.04298214285749 8.21025089506753  C 7.04249999986207 8.21025089506753  7.04201785691189 8.21025059671163  7.04153571428571 8.21025  L 1.49014285714286 8.21025  C 0.844679780233468 8.21025  0.321428571428571 7.6869987911951  0.321428571428571 7.04153571428571  L 0.321428571428571 1.49014285714286  C 0.321428571428571 0.845035714285715  0.845035714285715 0.321428571428571  1.49014285714286 0.321428571428571  Z M 10.9584642857143 0.321428571428571  L 16.5098571428571 0.321428571428571  C 17.1549642857143 0.321428571428571  17.6785714285714 0.845035714285715  17.6785714285714 1.49014285714286  L 17.6785714285714 7.04153571428571  C 17.6785714285714 7.6869987911951  17.1553202197665 8.21025  16.5098571428571 8.21025  L 10.9584642857143 8.21025  C 10.9579821430876 8.21025059671163  10.9575000001385 8.21025089506753  10.9570178571425 8.21025089506753  C 10.3115547802331 8.21025089506753  9.78830357142823 7.68699968626263  9.78830357142823 7.04153660935324  L 9.78830357142857 1.49014285714286  C 9.78830357142857 0.845035714285714  10.3119107142857 0.321428571428571  10.9584642857143 0.321428571428571  Z M 6.924375 6.924375  L 6.924375 1.60875  L 1.60585714285714 1.60875  L 1.60585714285714 6.924375  L 6.924375 6.924375  Z M 16.39125 6.924375  L 16.39125 1.60875  L 11.0727321428571 1.60875  L 11.0727321428571 6.924375  L 16.39125 6.924375  Z " fill-rule="nonzero" fill="#000000" stroke="none" transform="matrix(1 0 0 1 776 255 )" />
  </g>
</svg>