<?xml version="1.0" encoding="utf-8"?>
<svg version="1.1" xmlns:xlink="http://www.w3.org/1999/xlink" width="13px" height="13px" xmlns="http://www.w3.org/2000/svg">
  <g transform="matrix(1 0 0 1 -1189 -577 )">
    <path d="M 0.11612903125 3.077419359375  C 0.11612903125 3.28387096875  0.281290328125 3.449032265625  0.4877419375 3.449032265625  L 11.66709678125 3.449032265625  C 11.873548390625 3.449032265625  12.0387096875 3.28387096875  12.038709671875 3.077419359375  C 12.03870965625 2.87096775  11.873548375 2.705806453125  11.66709678125 2.705806453125  L 0.4877419375 2.705806453125  C 0.281290328125 2.705806453125  0.11612903125 2.87096775  0.11612903125 3.077419359375  Z M 3.95612903125 4.1922580625  C 3.76 4.1922580625  3.584516125 4.357419359375  3.584516125 4.56387096875  L 3.584516125 11.025806453125  C 3.584516125 11.2322580625  3.749677421875 11.397419359375  3.95612903125 11.397419359375  C 4.162580640625 11.397419359375  4.3277419375 11.2322580625  4.3277419375 11.025806453125  L 4.3277419375 4.56387096875  C 4.3277419375 4.357419359375  4.162580640625 4.1922580625  3.95612903125 4.1922580625  Z M 6.19612903125 4.1922580625  C 5.989677421875 4.1922580625  5.824516125 4.357419359375  5.824516125 4.56387096875  L 5.824516125 11.025806453125  C 5.824516125 11.2322580625  5.989677421875 11.397419359375  6.19612903125 11.397419359375  C 6.402580640625 11.397419359375  6.5677419375 11.2322580625  6.5677419375 11.025806453125  L 6.5677419375 4.56387096875  C 6.5677419375 4.357419359375  6.402580640625 4.1922580625  6.19612903125 4.1922580625  Z M 8.178064515625 4.1922580625  C 7.97161290625 4.1922580625  7.806451609375 4.357419359375  7.806451609375 4.56387096875  L 7.806451609375 11.025806453125  C 7.806451609375 11.2322580625  7.97161290625 11.397419359375  8.178064515625 11.397419359375  C 8.384516125 11.397419359375  8.549677421875 11.2322580625  8.549677421875 11.025806453125  L 8.549677421875 4.56387096875  C 8.549677421875 4.357419359375  8.384516125 4.1922580625  8.178064515625 4.1922580625  Z M 10.170322578125 2.953548390625  C 9.96387096875 2.953548390625  9.798709671875 3.1187096875  9.798709671875 3.325161296875  L 9.798709671875 11.769032265625  C 9.798709671875 11.975483875  9.633548375 12.140645171875  9.42709678125 12.14064515625  L 2.717419359375 12.14064515625  C 2.51096775 12.14064515625  2.345806453125 11.975483859375  2.345806453125 11.769032265625  L 2.345806453125 3.325161296875  C 2.345806453125 3.1187096875  2.18064515625 2.953548390625  1.974193546875 2.953548390625  C 1.7677419375 2.953548390625  1.602580640625 3.1187096875  1.602580640625 3.325161296875  L 1.602580640625 11.769032265625  C 1.602580640625 12.388387109375  2.098064515625 12.88387096875  2.717419359375 12.88387096875  L 9.42709678125 12.88387096875  C 10.046451625 12.88387096875  10.541935484375 12.38838709375  10.541935484375 11.769032265625  L 10.541935484375 3.325161296875  C 10.541935484375 3.1187096875  10.3767741875 2.953548390625  10.170322578125 2.953548390625  Z M 3.718709671875 3.201290328125  C 3.914838703125 3.201290328125  4.090322578125 3.03612903125  4.090322578125 2.829677421875  L 4.090322578125 2.086451609375  C 4.090322578125 1.745806453125  4.36903225 1.467096765625  4.709677421875 1.46709678125  L 7.445161296875 1.46709678125  C 7.785806453125 1.46709678125  8.064516140625 1.745806453125  8.064516125 2.086451609375  L 8.064516125 2.829677421875  C 8.064516125 3.03612903125  8.229677421875 3.201290328125  8.43612903125 3.201290328125  C 8.642580640625 3.201290328125  8.8077419375 3.03612903125  8.8077419375 2.829677421875  L 8.8077419375 2.086451609375  C 8.8077419375 1.33290321875  8.198709671875 0.72387096875  7.445161296875 0.72387096875  L 4.709677421875 0.72387096875  C 3.95612903125 0.72387096875  3.34709678125 1.332903234375  3.34709678125 2.086451609375  L 3.34709678125 2.829677421875  C 3.34709678125 3.03612903125  3.512258078125 3.201290328125  3.718709671875 3.201290328125  Z " fill-rule="nonzero" fill="#999999" stroke="none" transform="matrix(1 0 0 1 1189 577 )" />
  </g>
</svg>