<?xml version="1.0" encoding="utf-8"?>
<svg version="1.1" xmlns:xlink="http://www.w3.org/1999/xlink" width="14px" height="14px" xmlns="http://www.w3.org/2000/svg">
  <g transform="matrix(1 0 0 1 -1185 -676 )">
    <path d="M 14 7  C 14 10.85  10.85 14  7 14  C 3.15 14  0 10.85  0 7  C 0 3.15  3.15 0  7 0  C 10.85 0  14 3.15  14 7  Z M 13.3 7  C 13.3 3.5  10.5 0.7  7 0.7  C 3.5 0.7  0.7 3.5  0.7 7  C 0.7 10.5  3.5 13.3  7 13.3  C 10.5 13.3  13.3 10.5  13.3 7  Z M 11.025 7  C 11.025 7.175  10.7625 7.35  10.5875 7.35  L 3.4125 7.35  C 3.2375 7.35  3.0625 7.175  3.0625 7  C 3.0625 6.825  3.2375 6.65  3.4125 6.65  L 10.675 6.65  C 10.85 6.65  11.025 6.825  11.025 7  Z " fill-rule="nonzero" fill="#000000" stroke="none" transform="matrix(1 0 0 1 1185 676 )" />
  </g>
</svg>