<?xml version="1.0" encoding="utf-8"?>
<svg version="1.1" xmlns:xlink="http://www.w3.org/1999/xlink" width="355px" height="170px" xmlns="http://www.w3.org/2000/svg">
  <g transform="matrix(1 0 0 1 -10 -1580 )">
    <path d="M 10 1580  L 365 1580  L 365 1750  L 10 1750  L 10 1580  " fill-rule="nonzero" fill="#cccccc" stroke="none" />
    <path d="M 22 1592  L 353 1592  L 353 1738  L 22 1738  L 22 1592  " fill-rule="nonzero" fill="#ffffff" stroke="none" />
    <path d="M 207.35 1631  C 200.21 1631  194.6 1625.39  194.6 1618.25  C 194.6 1611.11  200.21 1605.5  207.35 1605.5  C 214.49 1605.5  220.1 1611.11  220.1 1618.25  C 220.1 1625.39  214.49 1631  207.35 1631  " fill-rule="nonzero" fill="#cccccc" stroke="none" />
    <path d="M 27 1734  L 27 1658.65  L 107.5 1624.4  L 220.2 1694.63661971831  L 284.6 1644.95  L 349 1694.63661971831  L 349 1734  L 27 1734  " fill-rule="nonzero" fill="#169bd5" stroke="none" />
  </g>
</svg>