<?xml version="1.0" encoding="utf-8"?>
<svg version="1.1" xmlns:xlink="http://www.w3.org/1999/xlink" width="20px" height="20px" xmlns="http://www.w3.org/2000/svg">
  <g transform="matrix(1 0 0 1 -887 -1254 )">
    <path d="M 20 10.15625  C 20 4.7225  15.59 0.3125  10.15625 0.3125  C 4.7225 0.3125  0.3125 4.7225  0.3125 10.15625  C 0.3125 15.59  4.7225 20  10.15625 20  C 15.59 20  20 15.59  20 10.15625  Z M 18.6875 10.15625  C 18.6875 14.868125  14.868125 18.6875  10.15625 18.6875  C 5.444375 18.6875  1.625 14.868125  1.625 10.15625  C 1.625 5.444375  5.444375 1.625  10.15625 1.625  C 14.868125 1.625  18.6875 5.444375  18.6875 10.15625  Z M 14.553125 13.608125  L 11.061875 10.090625  L 14.51375 6.678125  C 14.77625 6.415625  14.77625 5.995625  14.51375 5.74625  C 14.25125 5.48375  13.83125 5.48375  13.56875 5.74625  L 10.116875 9.1325  L 6.730625 5.733125  C 6.468125 5.470625  6.048125 5.470625  5.79875 5.733125  C 5.53625 5.995625  5.53625 6.415625  5.79875 6.665  L 9.171875 10.064375  L 5.58875 13.608125  C 5.32625 13.870625  5.32625 14.290625  5.58875 14.54  C 5.85125 14.8025  6.27125 14.8025  6.53375 14.54  L 10.10375 11.009375  L 13.62125 14.54  C 13.88375 14.8025  14.30375 14.8025  14.553125 14.54  C 14.815625 14.2775  14.815625 13.8575  14.553125 13.608125  Z " fill-rule="nonzero" fill="#000000" stroke="none" transform="matrix(1 0 0 1 887 1254 )" />
  </g>
</svg>