<?xml version="1.0" encoding="utf-8"?>
<svg version="1.1" xmlns:xlink="http://www.w3.org/1999/xlink" width="6px" height="10px" xmlns="http://www.w3.org/2000/svg">
  <g transform="matrix(1 0 0 1 -354 -215 )">
    <path d="M 0.444646458984375 0.17353535546875  C 0.525252525390624 0.0929292890625  0.632727271484375 0.0519191876367189  0.738787880859375 0.0519191875000002  C 0.846262626953125 0.0519191875000002  0.952323236328125 0.0929292890625  1.03434343945312 0.17353535546875  L 5.56383838867188 4.7030303046875  C 5.72787879492187 4.86565656054688  5.72787879492187 5.13151515234375  5.56383838867188 5.29414140820313  L 1.03575757617187 9.82222222070313  C 0.953737373046875 9.90424242382812  0.847676763671875 9.94383838853516  0.740202017578126 9.94383838867187  C 0.634141408066407 9.94383838867187  0.526666662109376 9.90282828710937  0.444646458984375 9.82222222070313  C 0.282020203125001 9.65959596484375  0.282020203125001 9.39515150962891  0.444646458984375 9.2311111171875  L 4.67858586328125 4.99858586328125  L 0.444646458984375 0.764646458984375  C 0.282020203125 0.600606052734376  0.282020203125 0.336161611328125  0.444646458984375 0.17353535546875  Z " fill-rule="nonzero" fill="#999999" stroke="none" transform="matrix(1 0 0 1 354 215 )" />
  </g>
</svg>