<?xml version="1.0" encoding="utf-8"?>
<svg version="1.1" xmlns:xlink="http://www.w3.org/1999/xlink" width="11px" height="12px" xmlns="http://www.w3.org/2000/svg">
  <g transform="matrix(1 0 0 1 -167 -535 )">
    <path d="M 10.695703125 9.322265625  C 10.695703125 8.4787109375  10.2458984375 7.698046875  9.514453125 7.276953125  C 9.28203125 7.1416015625  9.0318359375 7.0513671875  8.7748046875 7.0021484375  L 8.584765625 3.7619140625  C 8.5724609375 3.5677734375  8.4083984375 3.4173828125  8.2087890625 3.4173828125  L 6.97421875 3.4173828125  L 6.97421875 2.6955078125  C 6.97421875 1.40078125  5.8927734375 0.348046875  4.565234375 0.348046875  C 3.236328125 0.348046875  2.15625 1.40078125  2.15625 2.6955078125  L 2.15625 3.416015625  L 0.921679687500002 3.416015625  C 0.722070312500001 3.416015625  0.558007812500001 3.5677734375  0.545703125000002 3.760546875  L 0.123242187500001 10.951953125  L 0.123242187500001 10.9916015625  C 0.127343750000001 11.077734375  0.162890625000002 11.159765625  0.225781250000001 11.2240234375  C 0.296875000000001 11.2978515625  0.395312500000002 11.3388671875  0.499218750000001 11.3388671875  L 7.10546875 11.3388671875  C 7.121875 11.3484375  7.1369140625 11.3580078125  7.1533203125 11.367578125  C 7.8833984375 11.7900390625  8.784375 11.7900390625  9.514453125 11.367578125  C 10.24453125 10.9451171875  10.695703125 10.1658203125  10.695703125 9.322265625  Z M 2.908203125 3.416015625  L 2.908203125 2.6955078125  C 2.908203125 1.80546875  3.651953125 1.080859375  4.565234375 1.080859375  C 5.478515625 1.080859375  6.222265625 1.80546875  6.222265625 2.6955078125  L 6.222265625 3.416015625  L 2.908203125 3.416015625  Z M 6.3521484375 10.607421875  L 0.895703125 10.607421875  L 1.27578125 4.148828125  L 2.15625 4.148828125  L 2.15625 4.515234375  C 2.15625 4.717578125  2.3244140625 4.881640625  2.5322265625 4.881640625  C 2.7400390625 4.881640625  2.908203125 4.717578125  2.908203125 4.515234375  L 2.908203125 4.148828125  L 6.222265625 4.148828125  L 6.222265625 4.515234375  C 6.222265625 4.717578125  6.3904296875 4.881640625  6.5982421875 4.881640625  C 6.8060546875 4.881640625  6.97421875 4.717578125  6.97421875 4.515234375  L 6.97421875 4.148828125  L 7.8533203125 4.148828125  L 8.0201171875 6.981640625  C 7.7193359375 7.02265625  7.4240234375 7.12109375  7.1533203125 7.276953125  C 6.4232421875 7.698046875  5.9720703125 8.4787109375  5.9720703125 9.322265625  C 5.9720703125 9.7857421875  6.1087890625 10.2314453125  6.3521484375 10.607421875  Z M 9.880859375 9.322265625  C 9.880859375 9.5232421875  9.7154296875 9.688671875  9.514453125 9.688671875  L 8.7009765625 9.688671875  L 8.7009765625 10.5021484375  C 8.7009765625 10.703125  8.535546875 10.8685546875  8.3345703125 10.8685546875  C 8.1705078125 10.8685546875  8.0296875 10.7578125  7.983203125 10.607421875  C 7.9736328125 10.574609375  7.9681640625 10.5390625  7.9681640625 10.5021484375  L 7.9681640625 9.688671875  L 7.1546875 9.688671875  C 6.9537109375 9.688671875  6.78828125 9.5232421875  6.78828125 9.322265625  C 6.78828125 9.1212890625  6.9537109375 8.955859375  7.1546875 8.955859375  L 7.9681640625 8.955859375  L 7.9681640625 8.1423828125  C 7.9681640625 8.0439453125  8.0078125 7.95234375  8.0734375 7.88671875  C 8.1404296875 7.818359375  8.2333984375 7.7759765625  8.3345703125 7.7759765625  C 8.535546875 7.7759765625  8.7009765625 7.94140625  8.7009765625 8.1423828125  L 8.7009765625 8.955859375  L 9.514453125 8.955859375  C 9.7154296875 8.955859375  9.880859375 9.1212890625  9.880859375 9.322265625  Z " fill-rule="nonzero" fill="#ffffff" stroke="none" transform="matrix(1 0 0 1 167 535 )" />
  </g>
</svg>