<?xml version="1.0" encoding="utf-8"?>
<svg version="1.1" xmlns:xlink="http://www.w3.org/1999/xlink" width="14px" height="14px" xmlns="http://www.w3.org/2000/svg">
  <g transform="matrix(1 0 0 1 -1219 -676 )">
    <path d="M 14 7  C 14 3.12083333789063  10.8791666621094 0  7 0  C 3.12083333789063 0  0 3.12083333789063  0 7  C 0 10.8791666621094  3.12083333789063 14  7 14  C 10.8791666621094 14  14 10.8791666621094  14 7  Z M 10.7916666621094 7  C 10.7916666621094 7.175  10.675 7.29166666210937  10.5 7.29166666210938  L 7.29166666210938 7.29166666210938  L 7.29166666210938 10.5  C 7.29166666210938 10.675  7.175 10.7916666621094  7 10.7916666621094  C 6.825 10.7916666621094  6.70833333789063 10.675  6.70833333789063 10.5  L 6.70833333789063 7.29166666210938  L 3.5 7.29166666210938  C 3.325 7.29166666210938  3.20833333789063 7.175  3.20833333789063 7  C 3.20833333789063 6.825  3.325 6.70833333789063  3.5 6.70833333789063  L 6.70833333789062 6.70833333789063  L 6.70833333789062 3.5  C 6.70833333789062 3.325  6.825 3.20833333789063  7 3.20833333789063  C 7.175 3.20833333789063  7.29166666210937 3.325  7.29166666210937 3.5  L 7.29166666210937 6.70833333789062  L 10.5 6.70833333789062  C 10.675 6.70833333789062  10.7916666621094 6.825  10.7916666621094 7  Z " fill-rule="nonzero" fill="#666767" stroke="none" transform="matrix(1 0 0 1 1219 676 )" />
  </g>
</svg>