<?xml version="1.0" encoding="utf-8"?>
<svg version="1.1" xmlns:xlink="http://www.w3.org/1999/xlink" width="28px" height="28px" xmlns="http://www.w3.org/2000/svg">
  <g transform="matrix(1 0 0 1 -337 -1476 )">
    <path d="M 28 14  C 28 6.24166667578125  21.7583333242187 0  14 0  C 6.24166667578125 0  0 6.24166667578125  0 14  C 0 21.7583333242187  6.24166667578125 28  14 28  C 21.7583333242187 28  28 21.7583333242187  28 14  Z M 21.5833333242187 14  C 21.5833333242187 14.35  21.35 14.5833333242187  21 14.5833333242188  L 14.5833333242188 14.5833333242188  L 14.5833333242188 21  C 14.5833333242188 21.35  14.35 21.5833333242187  14 21.5833333242187  C 13.65 21.5833333242187  13.4166666757813 21.35  13.4166666757813 21  L 13.4166666757813 14.5833333242188  L 7 14.5833333242188  C 6.65 14.5833333242188  6.41666667578125 14.35  6.41666667578125 14  C 6.41666667578125 13.65  6.65 13.4166666757813  7 13.4166666757813  L 13.4166666757812 13.4166666757813  L 13.4166666757812 7  C 13.4166666757812 6.65  13.65 6.41666667578125  14 6.41666667578125  C 14.35 6.41666667578125  14.5833333242187 6.65  14.5833333242187 7  L 14.5833333242187 13.4166666757812  L 21 13.4166666757812  C 21.35 13.4166666757812  21.5833333242187 13.65  21.5833333242187 14  Z " fill-rule="nonzero" fill="#666767" stroke="none" transform="matrix(1 0 0 1 337 1476 )" />
  </g>
</svg>