<?xml version="1.0" encoding="utf-8"?>
<svg version="1.1" xmlns:xlink="http://www.w3.org/1999/xlink" width="12px" height="14px" xmlns="http://www.w3.org/2000/svg">
  <g transform="matrix(1 0 0 1 -227 -126 )">
    <path d="M 10.96138671875 11.5808984375  L 10.9587890625 11.5808984375  C 10.9587890625 12.001171875  10.61494140625 12.34501953125  10.19466796875 12.34501953125  L 1.79576171875 12.34501953125  C 1.36865234375 12.34501953125  1.031640625 12.001171875  1.031640625 11.5808984375  L 1.031640625 4.92447265625  L 10.9587890625 4.92447265625  L 10.9587890625 4.1603515625  L 1.0330078125 4.1603515625  L 1.0330078125 3.180625  C 1.0330078125 2.7603515625  1.36865234375 2.41650390625  1.79712890625 2.41650390625  L 3.32400390625 2.41650390625  L 3.32400390625 2.7986328125  C 3.32400390625 3.01287109375  3.49189453125 3.180625  3.7061328125 3.180625  C 3.91216796875 3.180625  4.08826171875 3.012734375  4.08826171875 2.7986328125  L 4.08826171875 2.41650390625  L 7.90626953125 2.41650390625  L 7.90626953125 2.7986328125  C 7.90626953125 3.01287109375  8.07416015625 3.180625  8.28826171875 3.180625  C 8.494296875 3.180625  8.670390625 3.012734375  8.670390625 2.7986328125  L 8.670390625 2.41650390625  L 10.197265625 2.41650390625  C 10.6175390625 2.41650390625  10.96138671875 2.7603515625  10.96138671875 3.180625  L 10.96138671875 11.5808984375  Z M 11.72154296875 3.180625  C 11.723046875 2.3414453125  11.03521484375 1.65361328125  10.19603515625 1.65361328125  L 8.66916015625 1.65361328125  L 8.66916015625 1.271484375  C 8.66916015625 1.06544921875  8.49306640625 0.8894921875  8.28703125 0.8894921875  C 8.07279296875 0.8894921875  7.9050390625 1.0655859375  7.9050390625 1.271484375  L 7.9050390625 1.65361328125  L 4.08689453125 1.65361328125  L 4.08689453125 1.271484375  C 4.08689453125 1.06544921875  3.91080078125 0.8894921875  3.704765625 0.8894921875  C 3.49052734375 0.8894921875  3.32263671875 1.0655859375  3.32263671875 1.271484375  L 3.32263671875 1.65361328125  L 1.79576171875 1.65361328125  C 0.94837890625 1.65361328125  0.26875 2.34130859375  0.26875 3.18048828125  L 0.26875 11.57939453125  C 0.26875 12.42677734375  0.9482421875 13.10626953125  1.79576171875 13.10626953125  L 10.19466796875 13.10626953125  C 11.03521484375 13.10626953125  11.72154296875 12.42677734375  11.72154296875 11.57939453125  L 11.72154296875 3.180625  Z M 8.19693359375 10.35275390625  L 8.19693359375 9.08646484375  L 9.48919921875 9.08646484375  L 9.48919921875 10.35275390625  L 8.19693359375 10.35275390625  Z M 5.35044921875 10.35275390625  L 5.35044921875 9.08646484375  L 6.64271484375 9.08646484375  L 6.64271484375 10.35275390625  L 5.35044921875 10.35275390625  Z M 2.50396484375 10.35275390625  L 2.50396484375 9.08646484375  L 3.79623046875 9.08646484375  L 3.79623046875 10.35275390625  L 2.50396484375 10.35275390625  Z M 8.19693359375 7.6658203125  L 8.19693359375 6.39953125  L 9.48919921875 6.39953125  L 9.48919921875 7.6658203125  L 8.19693359375 7.6658203125  Z M 5.35044921875 7.6658203125  L 5.35044921875 6.39953125  L 6.64271484375 6.39953125  L 6.64271484375 7.6658203125  L 5.35044921875 7.6658203125  Z M 2.50396484375 7.6658203125  L 2.50396484375 6.39953125  L 3.79623046875 6.39953125  L 3.79623046875 7.6658203125  L 2.50396484375 7.6658203125  Z " fill-rule="nonzero" fill="#999999" stroke="none" transform="matrix(1 0 0 1 227 126 )" />
  </g>
</svg>